<svg width="357" height="96" fill="none" xmlns="http://www.w3.org/2000/svg"><g clip-path="url(#a)"><path d="M95.3201 47.7848c.1169 26.5083-21.1246 48.097-47.4444 48.2147C21.5525 96.1172.1207 74.7236.0005 48.2152-.1164 21.7035 21.125.1182 47.445.0005 73.7681-.1172 95.2 21.273 95.3168 47.7848h.0033Z" fill="#8DC63F"/><path d="M91.7276 47.7979c.1102 24.5143-19.532 44.4754-43.8686 44.5864-24.3399.111-44.159-19.6719-44.2692-44.1862-.1102-24.5142 19.532-44.4754 43.8719-44.5863 24.3366-.1076 44.1558 19.6719 44.2659 44.1861Z" fill="#F9E988"/><path d="M48.4633 6.4873c2.7778-.5481 5.6626-.4741 8.4739-.0168 2.8112.4741 5.5824 1.3485 8.0899 2.7272 2.5108 1.3921 4.6843 3.2786 6.8479 5.0508 2.1569 1.7923 4.3137 3.5813 6.3604 5.5485 2.0667 1.947 3.9198 4.1563 5.4222 6.5976 1.5292 2.4212 2.8614 4.9903 3.803 7.7108 1.8396 5.4442 2.4773 11.3122 1.5625 16.9077h-.2838c-.9215-5.5485-2.1735-10.8313-4.1268-15.8619-.9515-2.5153-1.9799-5.0105-3.2586-7.3913-1.3055-2.3606-2.7011-4.691-4.2871-6.9306-1.6026-2.2194-3.5057-4.2605-5.7494-5.8444-2.237-1.604-4.8112-2.6464-7.2986-3.6351-2.4941-1.0021-4.9782-1.9672-7.5658-2.717-2.5842-.7701-5.2319-1.3149-7.9897-1.863V6.484v.0033Z" fill="#fff"/><path d="M70.0087 32.1144c-3.1986-.9314-6.5107-2.2563-9.8695-3.5913-.1937-.8475-.9382-1.9033-2.4474-3.198-2.1936-1.9168-6.3137-1.8663-9.8728-1.0189-3.9298-.9315-7.8128-1.2644-11.5389-.3632-30.47 8.4573-13.195 29.0809-24.3834 49.8188 1.5926 3.3997 18.7508 23.2465 43.5782 17.9199 0 0-8.4906-20.5496 10.6708-30.4158 15.5422-7.9999 26.7706-22.8564 3.8597-29.1548l.0033.0033Z" fill="#8BC53F"/><path d="M73.7681 45.6293c0 1.0256-.8213 1.8629-1.8397 1.8663-1.0183.0067-1.8497-.8239-1.8563-1.8529-.0067-1.0256.818-1.8629 1.8396-1.8663 1.0184-.0067 1.8497.8239 1.8564 1.8495v.0034Z" fill="#fff"/><path d="M47.8189 24.3101c2.2203.158 10.2468 2.7978 12.3169 4.2135-1.7162-5.0441-7.5357-5.7133-12.3169-4.2135Z" fill="#009345"/><path d="M49.9291 37.0607c0 4.7415-3.8163 8.5817-8.5206 8.5817-4.7044 0-8.5207-3.8402-8.5207-8.5817 0-4.7414 3.8163-8.5783 8.5207-8.5783 4.7043 0 8.5206 3.8403 8.5206 8.5783Z" fill="#fff"/><path d="M47.4049 37.1416c0 3.3324-2.6844 6.036-5.9932 6.036-3.3087 0-5.9931-2.7002-5.9931-6.036 0-3.3359 2.6844-6.0361 5.9931-6.0361 3.3088 0 5.9932 2.7036 5.9932 6.0361Z" fill="#58595B"/><path d="M80.6726 49.4091c-6.9013 4.8995-14.7575 8.6153-25.8924 8.6153-5.2119 0-6.2703-5.5787-9.7159-2.8448-1.7796 1.4123-8.0499 4.5699-13.0281 4.3312-5.0216-.2421-13.038-3.1812-15.2917-13.878-.8915 10.6968-1.3456 18.5791-5.3354 27.6113 7.943 12.8086 26.8774 22.6883 44.0656 18.4412-1.8464-12.9902 9.4254-25.7114 15.7758-32.2216 2.404-2.4649 7.0115-6.4901 9.4221-10.0546Z" fill="#8BC53F"/><path d="M80.4023 49.7321c-2.1435 1.9672-4.6944 3.4266-7.292 4.7111-2.6243 1.2476-5.3587 2.2631-8.1834 2.9996-2.8146.7331-5.7561 1.2845-8.7343 1.0155-2.9248-.2589-6.0165-1.2946-7.9898-3.5376l.0935-.1076c2.434 1.5805 5.2085 2.1354 7.9831 2.2161 2.7746.074 5.6025-.1345 8.3904-.7028 2.7813-.5784 5.5124-1.4426 8.1534-2.5389 2.6343-1.0962 5.2386-2.364 7.4856-4.1664l.0902.1076.0033.0034Z" fill="#58595B"/><path d="M145.13 41.8963c-.978-3.8504-3.449-6.665-8.297-6.665-7.132 0-10.116 6.3388-10.116 12.7683s2.984 12.7683 10.116 12.7683c5.175 0 8.017-3.8974 8.484-8.7801h5.686c-.467 8.0268-6.107 13.5686-14.17 13.5686-9.976 0-15.943-7.9798-15.943-17.5602 0-9.5804 5.967-17.5567 15.943-17.5567 7.506.047 13.425 4.2269 14.123 11.4568h-5.826ZM154.455 52.6032c0-7.4181 4.427-12.7682 12.167-12.7682 7.739 0 12.166 5.3534 12.166 12.7682 0 7.4148-4.427 12.8154-12.166 12.8154-7.74 0-12.167-5.3535-12.167-12.8154Zm19.018 0c0-4.1798-2.097-8.5447-6.851-8.5447-4.755 0-6.852 4.3649-6.852 8.5447 0 4.1799 2.097 8.5918 6.852 8.5918 4.754 0 6.851-4.3648 6.851-8.5918ZM183.356 31.2402h5.315v5.071h-5.315v-5.071Zm0 9.2475h5.315v24.2722h-5.315V40.4877ZM194.451 40.4907h5.035v3.5678l.093.0942c1.586-2.6767 4.334-4.3177 7.506-4.3177 5.222 0 8.53 2.8179 8.53 8.2622v16.6656H210.3V49.5062c-.093-3.8033-1.586-5.4443-4.708-5.4443-3.542 0-5.826 2.818-5.826 6.3858v14.3185h-5.315V40.4907ZM250.993 64.7623h-3.729l-.885-3.9444c-3.122 3.5678-5.966 4.7414-10.023 4.7414-9.976 0-15.943-7.9797-15.943-17.5601 0-9.5804 5.967-17.5568 15.943-17.5568 7.272 0 13.379 3.8974 14.263 11.4568h-5.686c-.56-4.4119-4.38-6.6649-8.577-6.6649-7.132 0-10.117 6.3387-10.117 12.7682s2.985 12.7683 10.117 12.7683c5.967.0941 9.229-3.5208 9.322-9.2004h-8.858v-4.459h14.17v17.6509h.003ZM260.736 54.0083c0 3.8032 2.05 7.1828 6.481 7.1828 3.075 0 4.941-1.3619 5.873-4.0387h5.035c-1.166 5.3064-5.64 8.2622-10.908 8.2622-7.553 0-11.793-5.3063-11.793-12.7682 0-6.9003 4.474-12.8153 11.652-12.8153 7.6 0 12.261 6.9003 11.376 14.1772h-17.716Zm12.4-3.5208c-.187-3.3795-2.47-6.4329-6.06-6.4329-3.589 0-6.2 2.818-6.34 6.4329h12.4ZM298.775 48.6117c-.42-2.9592-2.564-4.5532-5.499-4.5532-2.751 0-6.621 1.4561-6.621 8.8272 0 4.0386 1.773 8.3093 6.388 8.3093 3.075 0 5.221-2.0647 5.732-5.5384h5.316c-.979 6.2916-4.848 9.7653-11.048 9.7653-7.553 0-11.7-5.4005-11.7-12.5362 0-7.1357 3.964-13.0507 11.887-13.0507 5.592 0 10.347 2.8179 10.861 8.78h-5.316v-.0033ZM308.565 31.2402h5.315v19.0599l9.602-9.8124h6.525l-9.229 8.9213 10.117 15.3509h-6.481l-7.365-11.783-3.169 3.097v8.686h-5.315V31.2402ZM332.337 52.6032c0-7.4181 4.427-12.7682 12.167-12.7682 7.739 0 12.166 5.3534 12.166 12.7682 0 7.4148-4.427 12.8154-12.166 12.8154-7.74 0-12.167-5.3535-12.167-12.8154Zm19.018 0c0-4.1798-2.097-8.5447-6.851-8.5447-4.755 0-6.852 4.3649-6.852 8.5447 0 4.1799 2.097 8.5918 6.852 8.5918 4.754 0 6.851-4.3648 6.851-8.5918Z" fill="#fff"/></g><defs><clipPath id="a"><path fill="#fff" d="M0 0h356.67v96H0z"/></clipPath></defs></svg>