<svg width="800" height="800" viewBox="0 0 24 24" fill="none" xmlns="http://www.w3.org/2000/svg"><path d="M22 3.4706v17.0588A1.4707 1.4707 0 0 1 20.5294 22H3.4706A1.4705 1.4705 0 0 1 2 20.5294V3.4706A1.4706 1.4706 0 0 1 3.4706 2h17.0588A1.4707 1.4707 0 0 1 22 3.4706ZM7.8823 9.647H4.9412v9.4117h2.9411V9.6471Zm.2648-3.2353a1.6941 1.6941 0 0 0-1.6824-1.706h-.053a1.706 1.706 0 0 0 0 3.4118 1.694 1.694 0 0 0 1.7354-1.6529v-.053Zm10.9117 6.9294c0-2.8294-1.8-3.9294-3.5882-3.9294a3.3526 3.3526 0 0 0-2.9765 1.5176h-.0823V9.6471H9.6471v9.4117h2.9411v-5.0059a1.9531 1.9531 0 0 1 1.7647-2.1058h.1118c.9353 0 1.6294.5882 1.6294 2.0705v5.0412h2.9412l.0235-5.7176Z" fill="#fff"/></svg>