<svg width="256" height="256" viewBox="2 2 20 20" fill="none" xmlns="http://www.w3.org/2000/svg"><g fill="#fff"><path opacity=".4" d="M12 22.01c5.5228 0 10-4.4771 10-10 0-5.5228-4.4772-10-10-10-5.5229 0-10 4.4772-10 10 0 5.5229 4.4771 10 10 10Z"/><path d="M12 6.94c-2.07 0-3.75 1.68-3.75 3.7499 0 2.03 1.59 3.68 3.7 3.74h.18c2.02-.07 3.61-1.71 3.62-3.74 0-2.07-1.68-3.75-3.75-3.75ZM18.7807 19.36c-1.78 1.64-4.16 2.65-6.78 2.65s-5-1.01-6.78-2.65c.24-.91.89-1.74 1.84-2.38 2.73-1.82 7.17-1.82 9.88 0 .96.64 1.6 1.47 1.84 2.38Z"/></g></svg>